<?xml version="1.0" encoding="utf-8"?>
<!-- Generator: Adobe Illustrator 16.0.0, SVG Export Plug-In . SVG Version: 6.00 Build 0)  -->
<!DOCTYPE svg PUBLIC "-//W3C//DTD SVG 1.1//EN" "http://www.w3.org/Graphics/SVG/1.1/DTD/svg11.dtd">
<svg version="1.1" id="Capa_1" xmlns:sketch="http://www.bohemiancoding.com/sketch/ns"
	 xmlns="http://www.w3.org/2000/svg" xmlns:xlink="http://www.w3.org/1999/xlink" x="0px" y="0px" width="76px" height="72px"
	 viewBox="0 0 76 72" enable-background="new 0 0 76 72" xml:space="preserve">
<title>ah-frame</title>
<description>Created with Sketch (http://www.bohemiancoding.com/sketch)</description>
<path id="Rectangle_1_copy" fill="#81ACD1" d="M11.958,0.362L0.004,71.639C-0.029,71.839,0.125,72,0.348,72h6.025l0.875-5.22
	c0.034-0.199,0.239-0.36,0.462-0.36h38.174c0.223,0,0.375,0.161,0.342,0.36L45.352,72h6.226c0.226,0,0.431-0.162,0.465-0.361
	L63.996,0.362C64.029,0.161,63.875,0,63.652,0H12.423C12.197,0,11.992,0.162,11.958,0.362z"/>
<path id="Rectangle_1" fill="#B8D6E0" d="M64.042,0.362l11.954,71.277c0.033,0.2-0.121,0.361-0.344,0.361h-6.025l-0.875-5.22
	c-0.034-0.199-0.239-0.36-0.463-0.36H30.115c-0.222,0-0.375,0.161-0.341,0.36L30.649,72h-6.226c-0.226,0-0.431-0.162-0.465-0.361
	L12.004,0.362C11.971,0.161,12.125,0,12.348,0h51.229C63.803,0,64.008,0.162,64.042,0.362z"/>
<g>
	<g>
		<path fill="#14548E" stroke="#14548E" stroke-miterlimit="10" d="M40.727,40.588h-9.508l-3.367-18.867
			c-0.208-1.168-1.375-2.118-2.601-2.118c-1.208,0-2.015,0.95-1.8,2.118l3.871,21.017c0.215,1.168,1.34,2.118,2.573,2.118h11.539
			c1.186,0,1.998-0.95,1.808-2.118C43.048,41.551,41.919,40.588,40.727,40.588z"/>
		<path fill="#14548E" stroke="#14548E" stroke-miterlimit="10" d="M61.463,30.433h-7.098c-1.207,0-2.049,0.966-1.873,2.152
			c0.177,1.187,1.272,2.115,2.494,2.115h4.88l0.638,4.583c-1.262,0.845-2.824,1.305-4.466,1.305c-4.886,0-9.464-3.838-10.205-8.552
			c-0.735-4.68,2.732-8.488,7.729-8.488c2.088,0,4.164,0.669,5.971,1.966c1.047,0.625,2.399,0.394,2.9-0.35
			c0.331-0.42,0.447-0.994,0.315-1.577c-0.138-0.593-0.501-1.131-1.004-1.475c-2.704-1.851-5.752-2.83-8.803-2.83
			c-7.456,0-12.595,5.722-11.449,12.754c1.146,7.031,7.945,12.782,15.158,12.819h0.008c3.018,0,5.69-0.958,7.761-2.782
			c0.367-0.333,0.575-0.843,0.584-1.431l-1.062-8.058C63.794,31.477,62.805,30.535,61.463,30.433z"/>
	</g>
</g>
</svg>
